<svg xmlns="http://www.w3.org/2000/svg"  viewBox="0 0 50 50" width="50px" height="50px"><path d="M 28 4.0292969 C 21.72 4.3192969 16.159766 7.37 12.509766 12 L 20.800781 12 C 23.120781 12 25 13.879219 25 16.199219 L 25 24 L 28 24 L 28 4.0292969 z M 30 4.0292969 L 30 24 L 49.970703 24 C 49.470703 13.2 40.8 4.5292969 30 4.0292969 z M 3.1992188 14 C 1.9842187 14 1 14.984219 1 16.199219 L 1 33.800781 C 1 35.015781 1.9842187 36 3.1992188 36 L 20.800781 36 C 22.015781 36 23 35.015781 23 33.800781 L 23 16.199219 C 23 14.984219 22.015781 14 20.800781 14 L 3.1992188 14 z M 7.8730469 19 L 13.490234 19 C 15.498234 19 17.126906 20.627766 17.128906 22.634766 L 17.128906 22.705078 C 17.128906 24.961078 15.300922 26.789062 13.044922 26.789062 L 10.306641 26.789062 L 10.306641 31.023438 L 7.8730469 31.023438 L 7.8730469 19 z M 10.306641 20.896484 L 10.306641 24.894531 L 12.699219 24.894531 C 13.732219 24.894531 14.570312 24.056438 14.570312 23.023438 L 14.570312 22.767578 C 14.570312 21.734578 13.732219 20.896484 12.699219 20.896484 L 10.306641 20.896484 z M 25 26 L 25 33.800781 C 25 36.120781 23.120781 38 20.800781 38 L 12.509766 38 C 16.349766 42.87 22.31 46 29 46 C 40.26 46 49.450703 37.14 49.970703 26 L 25 26 z"/></svg>